<svg enable-background="new 0 0 110.5 182" viewBox="0 0 110.5 182" xmlns="http://www.w3.org/2000/svg"><g stroke="#fff" stroke-miterlimit="10" stroke-width=".5"><path d="m14.8 20.2v62.1" fill="#fff"/><path d="m14.8 93.2v81.6" fill="#fff"/><path d="m24.9 20.2v62.1" fill="#fff"/><path d="m24.9 93.2v81.6" fill="#fff"/><path d="m35 20.2v23.8" fill="#fff"/><path d="m35 54.5v27.8" fill="#fff"/><path d="m35 92.9v36.8" fill="#fff"/><path d="m35 140.4v34.4" fill="#fff"/><path d="m45 20.2v62.1" fill="#fff"/><path d="m55.1 20.2v62.1" fill="#fff"/><path d="m45 93.2v81.6" fill="#fff"/><path d="m55.1 93.2v81.6" fill="#fff"/><path d="m65.1 20.2v23.8" fill="#fff"/><path d="m65.1 54.8v27.5" fill="#fff"/><path d="m65.1 93.1v36.6" fill="#fff"/><path d="m65.1 140.2v34.6" fill="#fff"/><path d="m75.2 20.2v62.1" fill="#fff"/><path d="m75.2 93.2v81.6" fill="#fff"/><path d="m85.3 93.2v81.6" fill="#fff"/><path d="m85.3 20.2v62.1" fill="#fff"/><path d="m95.3 20.2v23.8" fill="#fff"/><path d="m95.3 54.8v27.5" fill="#fff"/><circle cx="65.1" cy="28.2" fill="none" r="2.9"/><circle cx="35" cy="37.8" fill="none" r="2.9"/><circle cx="24.9" cy="62.3" fill="none" r="2.9"/><circle cx="55.1" cy="62.3" fill="none" r="2.9"/><circle cx="85.3" cy="62.3" fill="none" r="2.9"/><circle cx="14.8" cy="73.4" fill="none" r="2.9"/><circle cx="45" cy="73.4" fill="none" r="2.9"/><circle cx="75.2" cy="73.4" fill="none" r="2.9"/><circle cx="24.9" cy="101" fill="none" r="2.9"/><circle cx="65.1" cy="101" fill="none" r="2.9"/><circle cx="85.3" cy="101" fill="none" r="2.9"/><circle cx="14.8" cy="111.5" fill="none" r="2.9"/><circle cx="45" cy="111.5" fill="none" r="2.9"/><circle cx="75.2" cy="111.5" fill="none" r="2.9"/><circle cx="35" cy="122" fill="none" r="2.9"/><circle cx="65.1" cy="122" fill="none" r="2.9"/><circle cx="95.3" cy="122" fill="none" r="2.9"/><circle cx="95.3" cy="167" fill="none" r="2.9"/><circle cx="35" cy="156.9" fill="none" r="2.9"/><circle cx="65.1" cy="146.8" fill="none" r="2.9"/><path d="m11.9 82.3h87.7v10.8h-87.7z" fill="none" transform="matrix(-1 0 0 -1 111.4596 175.4583)"/><path d="m90.7 44h9.3v10.8h-9.3z" fill="none" transform="matrix(-1 0 0 -1 190.6667 98.7917)"/></g><circle cx="95.4" cy="28.2" fill="#fff" r="1.5"/><path d="m62.3 28.2h33" fill="none" stroke="#fff" stroke-miterlimit="10" stroke-width=".5"/><circle cx="95.4" cy="146.8" fill="#fff" r="1.5"/><path d="m62.3 146.8h33" fill="none" stroke="#fff" stroke-miterlimit="10" stroke-width=".5"/><circle cx="95.4" cy="156.9" fill="#fff" r="1.5"/><path d="m32.1 156.9h63.2" fill="none" stroke="#fff" stroke-miterlimit="10" stroke-width=".5"/><circle cx="65.1" cy="167" fill="#fff" r="1.5"/><circle cx="14.8" cy="167" fill="#fff" r="1.5"/><path d="m98.2 167h-83.4" fill="none" stroke="#fff" stroke-miterlimit="10" stroke-width=".5"/><circle cx="95.4" cy="62.3" fill="#fff" r="1.5"/><path d="m82.4 62.3h12.9" fill="none" stroke="#fff" stroke-miterlimit="10" stroke-width=".5"/><circle cx="65.2" cy="62.3" fill="#fff" r="1.5"/><path d="m52.2 62.3h12.9" fill="none" stroke="#fff" stroke-miterlimit="10" stroke-width=".5"/><circle cx="35" cy="101" fill="#fff" r="1.5"/><path d="m22 101h13" fill="none" stroke="#fff" stroke-miterlimit="10" stroke-width=".5"/><circle cx="75.3" cy="101" fill="#fff" r="1.5"/><path d="m62.3 101h12.9" fill="none" stroke="#fff" stroke-miterlimit="10" stroke-width=".5"/><circle cx="95.4" cy="101" fill="#fff" r="1.5"/><path d="m82.4 101h12.9" fill="none" stroke="#fff" stroke-miterlimit="10" stroke-width=".5"/><circle cx="35" cy="62.3" fill="#fff" r="1.5"/><path d="m22 62.3h12.9" fill="none" stroke="#fff" stroke-miterlimit="10" stroke-width=".5"/><circle cx="35" cy="73.4" fill="#fff" r="1.5"/><path d="m12 73.4h22.9" fill="none" stroke="#fff" stroke-miterlimit="10" stroke-width=".5"/><circle cx="35" cy="111.5" fill="#fff" r="1.5"/><path d="m12 111.5h22.9" fill="none" stroke="#fff" stroke-miterlimit="10" stroke-width=".5"/><circle cx="14.8" cy="122" fill="#fff" r="1.5"/><circle cx="24.9" cy="122" fill="#fff" r="1.5"/><path d="m37.8 122h-22.9" fill="none" stroke="#fff" stroke-miterlimit="10" stroke-width=".5"/><circle cx="45" cy="122" fill="#fff" r="1.5"/><circle cx="55.1" cy="122" fill="#fff" r="1.5"/><path d="m68 122h-22.9" fill="none" stroke="#fff" stroke-miterlimit="10" stroke-width=".5"/><circle cx="75.2" cy="122" fill="#fff" r="1.5"/><circle cx="85.3" cy="122" fill="#fff" r="1.5"/><path d="m98.2 122h-22.9" fill="none" stroke="#fff" stroke-miterlimit="10" stroke-width=".5"/><circle cx="65.1" cy="73.4" fill="#fff" r="1.5"/><path d="m42.2 73.4h22.9" fill="none" stroke="#fff" stroke-miterlimit="10" stroke-width=".5"/><circle cx="65.1" cy="111.5" fill="#fff" r="1.5"/><path d="m42.2 111.5h22.9" fill="none" stroke="#fff" stroke-miterlimit="10" stroke-width=".5"/><circle cx="95.3" cy="73.4" fill="#fff" r="1.5"/><path d="m72.3 73.4h23" fill="none" stroke="#fff" stroke-miterlimit="10" stroke-width=".5"/><circle cx="95.3" cy="111.5" fill="#fff" r="1.5"/><path d="m72.3 111.5h23" fill="none" stroke="#fff" stroke-miterlimit="10" stroke-width=".5"/><circle cx="95.4" cy="37.8" fill="#fff" r="1.5"/><path d="m32.1 37.8h63.3" fill="none" stroke="#fff" stroke-miterlimit="10" stroke-width=".5"/><text fill="#fff" font-family="'JansonTextLTPro-Italic'" font-size="7" transform="matrix(0 1 -1 0 53.0796 84.526)">E</text><text fill="#fff" font-family="'JansonTextLTPro-Italic'" font-size="7" transform="matrix(0 1 -1 0 92.8843 46.526)">H</text><path d="m90.2 129.7h9.3v10.8h-9.3z" fill="none" stroke="#fff" stroke-miterlimit="10" stroke-width=".5" transform="matrix(-1 0 0 -1 189.8229 270.125)"/><text fill="#fff" font-family="'JansonTextLTPro-Italic'" font-size="7" transform="matrix(0 1 -1 0 92.4624 132.1926)">H</text><path d="m60.5 129.7h9.3v10.8h-9.3z" fill="none" stroke="#fff" stroke-miterlimit="10" stroke-width=".5" transform="matrix(-1 0 0 -1 130.3774 270.125)"/><text fill="#fff" font-family="'JansonTextLTPro-Italic'" font-size="7" transform="matrix(0 1 -1 0 62.7397 132.1926)">H</text><path d="m30.3 129.7h9.3v10.8h-9.3z" fill="none" stroke="#fff" stroke-miterlimit="10" stroke-width=".5" transform="matrix(-1 0 0 -1 70.0024 270.125)"/><text fill="#fff" font-family="'JansonTextLTPro-Italic'" font-size="7" transform="matrix(0 1 -1 0 32.5522 132.1926)">H</text><path d="m60.4 44h9.3v10.8h-9.3z" fill="none" stroke="#fff" stroke-miterlimit="10" stroke-width=".5" transform="matrix(-1 0 0 -1 130.206 98.7917)"/><text fill="#fff" font-family="'JansonTextLTPro-Italic'" font-size="7" transform="matrix(0 1 -1 0 62.6538 46.526)">H</text><path d="m30.3 44h9.3v10.8h-9.3z" fill="none" stroke="#fff" stroke-miterlimit="10" stroke-width=".5" transform="matrix(-1 0 0 -1 70.0024 98.7917)"/><text fill="#fff" font-family="'JansonTextLTPro-Italic'" font-size="7" transform="matrix(0 1 -1 0 32.5522 46.526)">H</text><path d="m14.8 10.6c1 0 2.5.4 2.5 1.5s-1.4 1.5-2.5 1.5-2.5-.4-2.5-1.5 1.5-1.5 2.5-1.5zm0 2.5c.5 0 2.3 0 2.3-.9s-1.8-.9-2.3-.9-2.3 0-2.3.9 1.9.9 2.3.9z" fill="#fff"/><path d="m24.9 10.6c1 0 2.5.4 2.5 1.5s-1.4 1.5-2.5 1.5-2.5-.4-2.5-1.5 1.5-1.5 2.5-1.5zm0 2.5c.5 0 2.3 0 2.3-.9s-1.8-.9-2.3-.9-2.3 0-2.3.9 1.8.9 2.3.9z" fill="#fff"/><path d="m35 10.6c1 0 2.5.4 2.5 1.5s-1.5 1.6-2.5 1.6-2.5-.4-2.5-1.5 1.5-1.6 2.5-1.6zm0 2.5c.5 0 2.3 0 2.3-.9s-1.8-.9-2.3-.9-2.3 0-2.3.9 1.8.9 2.3.9z" fill="#fff"/><path d="m45 10.6c1 0 2.5.4 2.5 1.5s-1.4 1.5-2.5 1.5-2.5-.4-2.5-1.5 1.5-1.5 2.5-1.5zm0 2.5c.5 0 2.3 0 2.3-.9s-1.8-.9-2.3-.9-2.3 0-2.3.9 1.9.9 2.3.9z" fill="#fff"/><path d="m55.1 10.6c1 0 2.5.4 2.5 1.5s-1.4 1.5-2.5 1.5-2.5-.4-2.5-1.5 1.4-1.5 2.5-1.5zm0 2.5c.5 0 2.3 0 2.3-.9s-1.8-.9-2.3-.9-2.3 0-2.3.9 1.8.9 2.3.9z" fill="#fff"/><path d="m64.9 10.6c1 0 2.5.4 2.5 1.5s-1.4 1.5-2.5 1.5-2.5-.4-2.5-1.5 1.5-1.5 2.5-1.5zm0 2.5c.5 0 2.3 0 2.3-.9s-1.8-.9-2.3-.9-2.3 0-2.3.9 1.9.9 2.3.9z" fill="#fff"/><path d="m75 10.6c1 0 2.5.4 2.5 1.5s-1.5 1.6-2.5 1.6-2.5-.4-2.5-1.5 1.5-1.6 2.5-1.6zm0 2.5c.5 0 2.3 0 2.3-.9s-1.8-.9-2.3-.9-2.3 0-2.3.9 1.8.9 2.3.9z" fill="#fff"/><path d="m85.1 10.6c1 0 2.5.4 2.5 1.5s-1.4 1.5-2.5 1.5-2.5-.4-2.5-1.5 1.5-1.5 2.5-1.5zm0 2.5c.5 0 2.3 0 2.3-.9s-1.8-.9-2.3-.9-2.3 0-2.3.9 1.8.9 2.3.9z" fill="#fff"/><path d="m95.1 10.6c1 0 2.5.4 2.5 1.5s-1.4 1.5-2.5 1.5-2.5-.4-2.5-1.5 1.5-1.5 2.5-1.5zm0 2.5c.5 0 2.3 0 2.3-.9s-1.8-.9-2.3-.9-2.3 0-2.3.9 1.9.9 2.3.9z" fill="#fff"/><path d="m11.4 8.8h6.8" fill="#fff" stroke="#fff" stroke-miterlimit="10" stroke-width=".5"/><path d="m11.4 15.5 3.4 1 3.4-1" fill="none" stroke="#fff" stroke-miterlimit="10" stroke-width=".5"/><path d="m21.5 15.5 3.4 1 3.4-1" fill="none" stroke="#fff" stroke-miterlimit="10" stroke-width=".5"/><path d="m31.5 15.5 3.4 1 3.5-1" fill="none" stroke="#fff" stroke-miterlimit="10" stroke-width=".5"/><path d="m41.6 15.5 3.4 1 3.4-1" fill="none" stroke="#fff" stroke-miterlimit="10" stroke-width=".5"/><path d="m51.6 15.5 3.5 1 3.4-1" fill="none" stroke="#fff" stroke-miterlimit="10" stroke-width=".5"/><path d="m61.7 15.5 3.4 1 3.4-1" fill="none" stroke="#fff" stroke-miterlimit="10" stroke-width=".5"/><path d="m71.8 15.5 3.4 1 3.4-1" fill="none" stroke="#fff" stroke-miterlimit="10" stroke-width=".5"/><path d="m81.8 15.5 3.4 1 3.5-1" fill="none" stroke="#fff" stroke-miterlimit="10" stroke-width=".5"/><path d="m91.9 15.5 3.4 1 3.4-1" fill="none" stroke="#fff" stroke-miterlimit="10" stroke-width=".5"/><path d="m21.5 8.8h6.8" fill="#fff" stroke="#fff" stroke-miterlimit="10" stroke-width=".5"/><path d="m31.5 8.8h6.9" fill="#fff" stroke="#fff" stroke-miterlimit="10" stroke-width=".5"/><path d="m41.6 8.8h6.8" fill="#fff" stroke="#fff" stroke-miterlimit="10" stroke-width=".5"/><path d="m51.6 8.8h6.9" fill="#fff" stroke="#fff" stroke-miterlimit="10" stroke-width=".5"/><path d="m61.7 8.8h6.8" fill="#fff" stroke="#fff" stroke-miterlimit="10" stroke-width=".5"/><path d="m71.8 8.8h6.8" fill="#fff" stroke="#fff" stroke-miterlimit="10" stroke-width=".5"/><path d="m81.8 8.8h6.9" fill="#fff" stroke="#fff" stroke-miterlimit="10" stroke-width=".5"/><path d="m91.9 8.8h6.8" fill="#fff" stroke="#fff" stroke-miterlimit="10" stroke-width=".5"/></svg>