<svg viewBox="0 0 564 600" xmlns="http://www.w3.org/2000/svg" xmlns:xlink="http://www.w3.org/1999/xlink"><clipPath id="a"><path d="m-.27.2h564.34v600h-564.34z"/></clipPath><clipPath id="b"><path d="m682.73.2h320.27v300.1h-320.27z"/></clipPath><g clip-path="url(#a)"><g fill="#161616" opacity=".5"><path d="m-114.47 582.37q-24.71 0-49.48-2.28a533.39 533.39 0 0 1 -204.11-61.56 533.42 533.42 0 0 1 -164.25-135.92 535.09 535.09 0 0 1 -96-182 535.18 535.18 0 0 1 -20.82-204.8 533.55 533.55 0 0 1 61.55-204.11 533.59 533.59 0 0 1 135.93-164.25 535.09 535.09 0 0 1 182-96 535.18 535.18 0 0 1 204.8-20.82 533.55 533.55 0 0 1 204.11 61.55 533.59 533.59 0 0 1 164.25 135.93 535.09 535.09 0 0 1 96 182 535.18 535.18 0 0 1 20.82 204.8 533.39 533.39 0 0 1 -61.56 204.09 533.42 533.42 0 0 1 -135.92 164.27 535.09 535.09 0 0 1 -182 96 535.91 535.91 0 0 1 -155.32 23.1zm.15-1071a532.73 532.73 0 0 0 -154.43 22.93 532.27 532.27 0 0 0 -181 95.5 530.61 530.61 0 0 0 -135.18 163.31 530.46 530.46 0 0 0 -61.21 203 532 532 0 0 0 20.66 203.62 532.27 532.27 0 0 0 95.5 181 530.61 530.61 0 0 0 163.33 135.16 530.59 530.59 0 0 0 203 61.21 532 532 0 0 0 203.65-20.66 532.27 532.27 0 0 0 181-95.5 530.61 530.61 0 0 0 135.13-163.33 530.64 530.64 0 0 0 61.21-203 532 532 0 0 0 -20.66-203.61 532.12 532.12 0 0 0 -95.51-181 530.45 530.45 0 0 0 -163.32-135.17 530.64 530.64 0 0 0 -203-61.21q-24.61-2.26-49.17-2.27z"/><path d="m-123.43 565q-21.13 0-42.24-1.66c-70-5.54-135.94-24.65-195.93-56.81s-112.4-76.53-155.76-131.78a544.37 544.37 0 0 1 -92.9-179.64 544.53 544.53 0 0 1 -22.07-201c5.53-70 24.65-135.94 56.81-195.93s76.52-112.42 131.73-155.78a544.32 544.32 0 0 1 179.63-92.9 544.58 544.58 0 0 1 201-22.07c70 5.54 135.94 24.65 195.93 56.81s112.43 76.48 155.79 131.76a544.32 544.32 0 0 1 92.9 179.63 544.37 544.37 0 0 1 22.06 201c-5.53 70-24.64 135.94-56.8 195.93s-76.48 112.44-131.72 155.76a544.37 544.37 0 0 1 -179.64 92.9 547.82 547.82 0 0 1 -158.79 23.78zm18.06-1036.18a545.08 545.08 0 0 0 -157.92 23.6 541.55 541.55 0 0 0 -178.65 92.39c-54.92 43.1-99 95.19-130.94 154.82s-51 125.15-56.46 194.75a541.62 541.62 0 0 0 22 199.92c19.8 65.7 50.88 125.77 92.34 178.59 43.11 54.92 95.2 99 154.83 131s125.15 51 194.75 56.45a541.4 541.4 0 0 0 199.91-21.99c65.72-19.85 125.82-50.93 178.64-92.35 54.92-43.1 99-95.19 130.94-154.82s50.93-125.18 56.46-194.79a541.4 541.4 0 0 0 -21.94-199.92c-19.85-65.72-50.93-125.82-92.39-178.64-43.1-54.93-95.19-99-154.82-130.95s-125.15-51-194.75-56.46q-20.98-1.65-42-1.65z"/><path d="m-133.11 547.65c-77.69 0-154.33-16.93-222-53.22-230.89-123.75-332.1-458.98-208.36-689.81s459-332.07 689.81-208.33 332.07 459 208.32 689.81c-87.45 163.13-280.56 261.55-467.77 261.55zm-220.61-55.87c109.25 58.57 248.72 68.95 382.72 28.48s244.45-126.33 303-235.58 69-248.75 28.5-382.74-126.33-244.43-235.58-303-248.75-68.94-382.75-28.48-244.43 126.33-302.99 235.54-68.95 248.79-28.48 382.78 126.33 244.43 235.58 303z"/><path d="m-143.28 530.32q-13 0-25.83-.64c-66.87-3.36-127.28-19.28-179.57-47.31s-99-69.53-138.79-123.36c-37.39-50.54-67.34-111-86.62-174.82s-27.79-130.75-24.63-193.54c3.36-66.87 19.28-127.28 47.31-179.57s69.53-99 123.36-138.79c50.54-37.39 111-67.34 174.82-86.62s130.75-27.79 193.54-24.67c66.87 3.36 127.28 19.28 179.57 47.31s99 69.53 138.79 123.36c37.39 50.54 67.34 111 86.61 174.82s27.8 130.75 24.64 193.54c-3.36 66.87-19.28 127.28-47.31 179.57s-69.53 99-123.36 138.79c-50.55 37.39-111 67.34-174.82 86.62-55.14 16.69-112.61 25.31-167.71 25.31zm57.76-966.92c-54.82 0-112 8.58-166.84 25.15-63.5 19.17-123.64 49-173.91 86.15-53.47 39.55-94.68 85.91-122.5 137.8s-43.61 111.88-47 178.3c-3.14 62.45 5.34 129 24.51 192.52s49 123.64 86.16 173.91c39.55 53.46 85.91 94.68 137.8 122.5s111.88 43.61 178.3 46.95c62.45 3.14 129-5.33 192.52-24.51s123.63-49 173.91-86.15c53.46-39.55 94.68-85.91 122.5-137.8s43.61-111.88 46.95-178.3c3.15-62.45-5.33-129-24.51-192.52s-49-123.64-86.15-173.91c-39.51-53.49-85.87-94.68-137.76-122.49s-111.88-43.62-178.3-47q-12.73-.6-25.68-.6z"/><path d="m-153.15 513.18c-5.94 0-11.82-.1-17.68-.3-65.27-2.27-122.93-16.59-171.39-42.57s-92.3-66.07-130.31-119.17c-35.53-49.63-64.39-109.25-83.47-172.41s-28-128.8-25.92-189.8c2.27-65.27 16.59-122.93 42.56-171.38s66.08-92.31 119.18-130.32c49.63-35.53 109.25-64.39 172.41-83.47s128.8-28 189.8-25.92c65.26 2.27 122.97 16.59 171.38 42.56s92.3 66.08 130.32 119.18c35.53 49.63 64.39 109.25 83.47 172.42s28 128.8 25.92 189.8c-2.27 65.26-16.59 122.93-42.57 171.38s-66.07 92.3-119.17 130.32c-49.63 35.5-109.25 64.38-172.38 83.5-57.13 17.2-116.26 26.18-172.15 26.18zm77.5-932.64c-55.61 0-114.43 8.93-171.25 26.09-62.85 19-122.17 47.7-171.54 83-52.72 37.74-92.51 81.24-118.27 129.29s-39.96 105.31-42.21 170.08c-2.11 60.68 6.81 126 25.79 188.83s47.7 122.16 83 171.54c37.74 52.72 81.24 92.51 129.29 118.27s105.27 40 170.07 42.21c60.69 2.11 126-6.81 188.83-25.8s122.16-47.69 171.54-83c52.72-37.74 92.51-81.24 118.27-129.29s40-105.27 42.21-170.07c2.11-60.68-6.81-126-25.8-188.83s-47.69-122.17-83-171.54c-37.74-52.72-81.28-92.51-129.28-118.27s-105.27-40-170.07-42.21c-5.82-.2-11.69-.3-17.58-.3z"/><path d="m-162.79 496.18c-66 0-125.94-12.71-173-37.92-86.73-46.5-162.31-153-202.16-285s-35.85-262.52 10.65-349.26 153-162.31 285-202.16 262.52-35.84 349.3 10.62 162.3 153 202.16 285 35.84 262.54-10.66 349.25-153 162.3-285 202.16c-60.41 18.24-120.5 27.31-176.29 27.31zm-171.55-40.56c86 46.12 215.76 50 347 10.38s237.07-114.66 283.2-200.71 50-215.75 10.38-347-114.66-237.06-200.71-283.19-215.75-50-347-10.38-237.06 114.66-283.19 200.71-50 215.75-10.38 347 114.66 237.06 200.7 283.19z"/><path d="m-174 479.27h-.3c-61.13 0-114.74-11.47-155-33.06s-79.48-59.92-113.35-110.81c-31.82-47.81-58.51-105.77-77.18-167.6s-28.52-124.87-28.48-182.3c0-61.14 11.47-114.75 33.06-155s59.91-79.5 110.81-113.38c47.81-31.82 105.76-58.51 167.6-77.18s124.84-28.49 182.3-28.49c61.14 0 114.74 11.47 155 33.06s79.54 59.92 113.38 110.81c31.82 47.81 58.5 105.77 77.18 167.6s28.53 124.87 28.49 182.3c0 61.14-11.47 114.74-33.07 155s-59.91 79.48-110.8 113.35c-47.81 31.85-105.77 58.54-167.64 77.21s-124.62 28.49-182 28.49zm119.16-864.82c-57.06 0-119.68 9.8-181.13 28.36s-119.24 45.19-166.81 76.81c-50.48 33.6-88.46 72.42-109.82 112.27s-32.68 93-32.71 153.61c0 57.14 9.77 119.88 28.36 181.43s45.15 119.24 76.81 166.81c33.6 50.48 72.42 88.46 112.27 109.82s93 32.68 153.61 32.71h.29c57.07 0 119.69-9.8 181.14-28.36s119.24-45.15 166.83-76.81c50.48-33.6 88.46-72.42 109.82-112.27s32.67-93 32.71-153.61c0-57.14-9.77-119.88-28.36-181.43s-45.17-119.24-76.83-166.79c-33.6-50.48-72.42-88.46-112.27-109.82s-93-32.68-153.61-32.71z"/><path d="m-184.78 462.55c-55.71 0-103.3-9.77-138-28.4-36.56-19.6-72.82-56.47-104.87-106.62-30-46.9-55.56-104-74-165.19s-28.85-122.92-29.86-178.56c-1.08-59.5 8.72-110.28 28.32-146.85s56.47-72.82 106.62-104.86c46.9-30 104-55.57 165.19-74s122.91-28.77 178.56-29.78c59.5-1.12 110.28 8.71 146.82 28.28s72.85 56.43 104.89 106.62c30 46.9 55.57 104 74 165.19s28.81 122.92 29.82 178.56c1.07 59.5-8.72 110.28-28.32 146.85s-56.47 72.82-106.62 104.86c-46.9 30-104 55.57-165.19 74s-122.92 28.81-178.58 29.82c-2.93.05-5.87.08-8.78.08zm-136.63-31c36.11 19.36 86.39 29 145.38 28 55.37-1 116.83-11.26 177.74-29.65s117.77-43.88 164.44-73.69c49.72-31.77 86.24-67.65 105.6-103.76s29-86.39 28-145.38c-1-55.37-11.26-116.83-29.65-177.74s-43.88-117.77-73.69-164.44c-31.77-49.72-67.65-86.24-103.76-105.6s-86.39-29-145.38-28c-55.37 1-116.83 11.26-177.74 29.65s-117.77 43.88-164.44 73.69c-49.72 31.77-86.24 67.65-105.6 103.76s-29 86.38-28 145.38c1 55.37 11.25 116.83 29.65 177.74s43.86 117.73 73.69 164.4c31.77 49.72 67.65 86.24 103.76 105.6z"/><path d="m-195.36 446c-49.29 0-91.19-7.94-121-23.92-64.17-34.4-128.26-136-167.28-265.23s-41.89-249.31-7.5-313.47 136-128.26 265.22-167.28 249.32-41.89 313.48-7.5 128.26 136 167.28 265.23 41.89 249.31 7.5 313.47-136.03 128.28-265.23 167.3c-69.11 20.89-135.71 31.4-192.47 31.4zm-119.59-26.57c63.49 34 182.73 31.08 311.2-7.72s229.41-102.32 263.44-165.8 31.08-182.73-7.69-311.2-102.37-229.41-165.85-263.44-182.73-31.08-311.15 7.73-229.46 102.33-263.49 165.81-31.08 182.73 7.72 311.19 102.34 229.42 165.82 263.45z"/><path d="m-207.14 429.71c-43.37 0-78.55-6.69-102.76-19.67-29.18-15.64-59.58-49.62-87.91-98.27-26.25-45.07-49.67-100.52-67.74-160.36s-29.26-119-32.35-171c-3.33-56.19 3.17-101.32 18.82-130.5s49.62-59.58 98.27-87.91c45.07-26.25 100.52-49.67 160.36-67.74s119-29.26 171-32.35c56.24-3.39 101.37 3.09 130.55 18.77s59.58 49.62 87.9 98.32c26.25 45 49.68 100.47 67.75 160.31s29.25 118.99 32.35 171.05c3.33 56.19-3.18 101.32-18.82 130.5s-49.62 59.58-98.28 87.91c-45.06 26.23-100.51 49.67-160.35 67.74s-119 29.26-171 32.35q-14.42.86-27.79.85zm185.86-765.71c-159 0-403.2 90.35-455.16 187.27-15.38 28.73-21.77 73.27-18.46 128.91 3.07 51.83 14.21 110.75 32.22 170.36s41.33 114.85 67.46 159.72c28.05 48.17 58 81.75 86.73 97.14s73.27 21.76 128.91 18.46c51.83-3.07 110.74-14.21 170.36-32.22s114.85-41.33 159.72-67.46c48.17-28.05 81.75-58 97.14-86.74 65.29-121.8-46.15-490.82-168-556.12-24.85-13.32-60.09-19.32-100.92-19.32z"/><path d="m-218.37 413.67c-36.69 0-65.71-5.31-85.07-15.68-25.52-13.68-53-46.22-79.43-94.1-24.39-44.15-46.72-98.77-64.6-157.94s-29.49-117-33.62-167.3c-4.48-54.51.38-96.81 14.06-122.33s46.22-53 94.1-79.43c44.15-24.39 98.77-46.72 157.94-64.59s117-29.5 167.3-33.63c54.51-4.48 96.81.38 122.33 14.06s53 46.22 79.43 94.1c24.39 44.17 46.72 98.77 64.59 157.94s29.5 117 33.63 167.3c4.48 54.51-.39 96.81-14.06 122.33s-46.22 53-94.1 79.43c-44.13 24.39-98.77 46.72-157.94 64.59s-117 29.5-167.3 33.63c-13.15 1.08-25.6 1.62-37.26 1.62zm208-733.62q-17.41 0-37.11 1.61c-50.06 4.11-107.7 15.7-166.67 33.51s-113.39 40.06-157.36 64.35c-47.37 26.16-79.5 53.21-92.9 78.22s-18.12 66.73-13.69 120.66c4.11 50.07 15.7 107.71 33.51 166.68s40.06 113.39 64.35 157.36c26.16 47.37 53.21 79.5 78.22 92.9s66.73 18.15 120.66 13.72c50.07-4.11 107.71-15.7 166.68-33.51s113.39-40.06 157.36-64.35c47.37-26.2 79.5-53.2 92.9-78.2s18.15-66.73 13.72-120.67c-4.11-50.06-15.7-107.7-33.51-166.67s-40.06-113.39-64.35-157.36c-26.17-47.37-53.21-79.5-78.22-92.9-18.93-10.17-47.44-15.35-83.56-15.35z"/><path d="m-229.85 398c-27.72 0-51.22-3.57-67.13-12.1-27.63-14.81-53.83-57.07-70.95-89.92-22.21-42.62-44-97.86-61.45-155.53-29-96-53.1-226.38-25.59-277.7 14.81-27.6 57.07-53.75 89.97-70.92 42.62-22.21 97.85-44 155.52-61.45 96-29 226.39-53.1 277.71-25.59 27.63 14.81 53.83 57.07 70.94 89.92 22.21 42.62 44 97.85 61.45 155.52 29 96 53.11 226.39 25.6 277.71-14.81 27.63-57.07 53.83-89.92 70.94-42.62 22.21-97.86 44-155.53 61.45-66.31 20.02-148.91 37.67-210.62 37.67zm230.47-702.23a439.74 439.74 0 0 0 -46.29 2.69c-47.61 5.07-105.49 17.43-163 34.8s-112.54 39.11-155 61.24c-46.56 24.26-77.22 48.36-88.66 69.7s-14.54 60.21-9 112.43c5.07 47.61 17.43 105.49 34.8 163s39.11 112.54 61.23 155c24.27 46.57 48.37 77.23 69.71 88.67s60.21 14.54 112.43 9c47.61-5.07 105.49-17.43 163-34.8s112.54-39.11 155-61.24c46.57-24.26 77.23-48.36 88.67-69.7s14.54-60.21 9-112.43c-5.07-47.61-17.43-105.49-34.8-163s-39.11-112.54-61.24-155c-24.26-46.57-48.37-77.23-69.7-88.67-14.46-7.77-36.94-11.69-66.15-11.69z"/><path d="m-239.65 382.58c-20.16 0-38.83-2.25-50.86-8.7-23.05-12.36-46.7-53.45-62.47-85.75-20.38-41.72-41.09-96.13-58.31-153.13s-30.07-113.73-36.19-159.76c-4.74-35.63-7.79-82.95 4.56-106s53.45-46.7 85.75-62.47c41.72-20.38 96.1-41.09 153.11-58.31s113.75-30.06 159.78-36.18c35.63-4.74 83-7.79 106 4.56s46.69 53.45 62.47 85.75c20.38 41.72 41.09 96.1 58.31 153.11s30.07 113.75 36.19 159.78c4.73 35.63 7.79 83-4.56 106s-53.46 46.69-85.76 62.47c-41.72 20.37-96.1 41.05-153.11 58.3s-113.76 30.07-159.78 36.19c-17.02 2.26-36.7 4.14-55.13 4.14zm-49.45-11.35c39.34 21.09 160.68-.8 263.49-31.86s216-80 237.08-119.31-.81-160.68-31.86-263.5-80-216-119.31-237.07-160.68.8-263.5 31.85-216 80-237.07 119.32.8 160.68 31.85 263.49 79.99 216 119.32 237.08z"/><path d="m-248.91 367.62c-15.53 0-27.67-1.79-35.14-5.8-62.11-33.3-180.11-424-146.81-486.11s424-180.11 486.11-146.81c32.15 17.23 77.98 129.1 109.15 232.26s54.89 221.7 37.66 253.84-129.06 78-232.26 109.16c-79.2 23.92-167.44 43.46-218.71 43.46zm-33.72-8.44c27.17 14.57 128.27-.66 251.56-37.89s215.92-80.52 230.49-107.7-.66-128.27-37.9-251.59-80.52-215.89-107.69-230.46-128.27.66-251.56 37.89-215.92 80.57-230.49 107.7.66 128.27 37.89 251.56 80.52 215.92 107.7 230.49z"/><path d="m-255.74 353.29q-15.25 0-21.85-3.52c-11.19-6-26.5-32-45.51-77.42-16.72-39.91-35.19-92.56-52-148.25s-30.59-109.77-38.76-152.26c-9.28-48.31-10.95-78.48-4.95-89.67s32.05-26.5 77.42-45.51c39.91-16.72 92.56-35.19 148.25-52s109.77-30.59 152.26-38.76c48.31-9.28 78.48-11 89.67-5s26.5 32.1 45.51 77.47c16.72 39.91 35.19 92.56 52 148.25s30.58 109.77 38.74 152.26c9.29 48.31 11 78.48 5 89.67s-32 26.5-77.42 45.51c-39.91 16.72-92.56 35.19-148.25 52s-109.77 30.58-152.26 38.75c-29.41 5.65-52.11 8.48-67.85 8.48zm-20.43-6.17c7.27 3.9 28.38 6.15 87.68-5.25 42.4-8.15 96.36-21.88 152-38.67s108.14-35.23 148-51.91c55.7-23.33 72-36.89 75.93-44.16 24.11-45.13-94.95-439.34-140.07-463.53s-439.34 94.86-463.53 140 94.86 439.33 139.99 463.52z"/><path d="m-260.44 339.35c-5 0-8.61-.52-10.69-1.64-16.26-8.71-54.87-116.31-85.87-219.08s-58.45-213.73-49.73-230 116.31-54.85 219.08-85.89 213.72-58.45 229.98-49.74 54.85 116.32 85.89 219.09 58.45 213.73 49.73 230-116.31 54.85-219.08 85.91c-89.6 27-185.45 51.35-219.31 51.35zm292-585.09c-29.08 0-113.48 19.66-218.41 51.35-120.86 36.5-210.21 71.22-217.3 84.44s13.46 106.86 50 227.72 71.22 210.21 84.44 217.3c1.74.93 4.89 1.38 9.3 1.39 29.08 0 113.49-19.66 218.42-51.35 120.85-36.5 210.21-71.23 217.3-84.44 16-29.78-104.62-429-134.4-445-1.74-.95-4.91-1.41-9.31-1.41z"/><path d="m-261.37 326.15a7.8 7.8 0 0 1 -3.3-.49c-11.7-6.28-67.89-191.4-74.26-212.49s-62.07-206.37-55.77-218.07 191.4-67.9 212.49-74.27 206.37-62 218.07-55.77 67.9 191.4 74.27 212.49 62 206.37 55.77 218.07-191.4 67.9-212.49 74.27c-19.97 6.03-187.11 56.26-214.78 56.26zm293.66-558.75c-15.71 0-104.11 23.22-213.63 56.3-116.78 35.3-207.37 66.57-210.66 72.81s20.72 99 56 215.79 66.51 207.37 72.75 210.7 99-20.72 215.79-56 207.37-66.57 210.71-72.81-20.72-99-56-215.79-66.56-207.35-72.8-210.69a5.11 5.11 0 0 0 -2.16-.31z"/><path d="m-258.5 314.15-124.69-412.89 412.88-124.69 124.7 412.88zm-120.95-410.88 123 407.14 407.14-123-123-407.14z"/></g></g><text fill="#c6c6c6" font-family="IBMPlexMono, IBM Plex Mono" font-size="13.31" transform="translate(123.7 491.7)">Even for simple molecules like</text><text fill="#c6c6c6" font-family="IBMPlexMono, IBM Plex Mono" font-size="13.31" transform="translate(123.7 513.1)">caffeine, the number of quantum</text><text fill="#c6c6c6" font-family="IBMPlexMono, IBM Plex Mono" font-size="13.31" transform="translate(123.7 534.51)">states in the system can be enormous</text><path d="m287.2 408.77a22.91 22.91 0 0 0 -4-.7v-45.9l-1.6.92a2.39 2.39 0 0 1 -2.4 0l-1.6-.92v46.1a22.09 22.09 0 0 0 -4 1v-49.4l-36.25-20.87a22.6 22.6 0 0 0 2-4.4l41.09 23.66 61-35.12v-71.07l-41.64-24a22.75 22.75 0 0 0 2.47-4.11l42 24.18 50.22-16.36a22.3 22.3 0 0 0 1.48 4.56l-49.37 16.09v72l47.31 15.42a22.5 22.5 0 0 0 -1.24 4.64l-49.58-16.15a2.57 2.57 0 0 1 -.62-.31l-55.27 31.84zm140.23-80.43 28.89-39.87-29.32-40.54a22 22 0 0 0 4.12-2.48l30.14 41.61a2.4 2.4 0 0 1 0 2.82l-29.94 41.33a23.56 23.56 0 0 0 -3.89-2.87zm-1.94 40.73 12 27.29-3.66 1.6-12.09-27.49a23.09 23.09 0 0 0 3.75-1.4zm-206.49-64.67c-.59 0-1.18-.07-1.78-.07a23.25 23.25 0 0 0 -3 .19v-47.34l-42.68-31.36a20.53 20.53 0 0 0 3.66-2.27l39 28.67v-1.32a2.41 2.41 0 0 1 1.2-2.08l2.06-1.18-38.35-28.18a19.64 19.64 0 0 0 2-3.48l40.13 29.48 38.59-22.21a22.86 22.86 0 0 0 2.33 4.19l-43.16 24.84zm-20.91 36.13-31 23.28-2.41-3.18 31.47-23.63a22.78 22.78 0 0 0 1.98 3.53zm80.31-149.26v-50.1h4v50c-.39 0-.79 0-1.19 0a23.69 23.69 0 0 0 -2.81.1zm53.6 65.61h4v62.12h-4zm86.84-6.88 26.82 36.4-3.23 2.36-28.68-38.94a23.45 23.45 0 0 0 3.37.25c.58.04 1.16.01 1.72-.07z" fill="#4589ff"/><g fill="#a6c8ff" fill-rule="evenodd"><path d="m280 438.65c-5.56 0-9.24-3.78-9.24-10.94s3.68-10.93 9.24-10.93 9.23 3.78 9.23 10.93-3.6 10.94-9.23 10.94zm0-3.54c3 0 5-2.15 5-5.76v-3.27c0-3.61-1.94-5.76-5-5.76s-5 2.15-5 5.76v3.27c.06 3.65 2 5.76 5 5.76z"/><path d="m163.31 218.57c-5.55 0-9.23-3.78-9.23-10.93s3.68-10.94 9.23-10.94 9.24 3.78 9.24 10.94-3.65 10.93-9.24 10.93zm0-3.54c3 0 5-2.15 5-5.76v-3.27c0-3.61-2-5.76-5-5.76s-5 2.15-5 5.76v3.27c.02 3.61 1.97 5.73 5 5.73z"/><path d="m221.81 336.22-6.38-10.84-2.19-4.4h-.09v15.24h-3.8v-21.15h4.41l6.38 10.85 2.19 4.39h.09v-15.24h3.8v21.15z"/><path d="m132.84 387.62c-5.59 0-9.14-3.67-9.14-10.79s3.55-11.09 9.14-11.09c3.8 0 6.26 1.61 7.75 4.88l-3.43 1.82a4.2 4.2 0 0 0 -4.32-3.15c-3 0-4.89 2.15-4.89 5.76v3.33c0 3.63 1.92 5.7 4.89 5.7a4.72 4.72 0 0 0 4.59-3.37l3.25 1.91a8.15 8.15 0 0 1 -7.84 5zm24.13-.36v-8.94h-8.85v8.94h-4v-21.15h4v8.66h8.88v-8.66h4v21.15z"/><path d="m168.32 383.68h1.68c1.91 0 2.8-.88 2.8-2.08v-.16a2.18 2.18 0 0 0 -2.47-2.21 4 4 0 0 0 -3.43 2l-2-1.81a6.28 6.28 0 0 1 5.54-2.78c3.38 0 5.68 1.68 5.68 4.36a3.77 3.77 0 0 1 -3.21 3.8v.2a4 4 0 0 1 3.5 4.07c0 2.94-2.47 4.9-6.16 4.9a6.44 6.44 0 0 1 -5.95-3.11l2.32-1.77a3.86 3.86 0 0 0 3.63 2.3c1.84 0 2.87-1 2.87-2.51v-.17c0-1.53-1.12-2.34-3.11-2.34h-1.66z"/><path d="m262.36 135.65c-5.59 0-9.15-3.67-9.15-10.79s3.56-11.09 9.15-11.09c3.8 0 6.26 1.6 7.74 4.88l-3.43 1.82a4.2 4.2 0 0 0 -4.31-3.16c-3 0-4.89 2.16-4.89 5.76v3.33c0 3.64 1.91 5.7 4.89 5.7a4.71 4.71 0 0 0 4.59-3.36l3.25 1.91a8.15 8.15 0 0 1 -7.84 5zm24.12-.37v-8.94h-8.84v8.94h-4v-21.15h4v8.67h8.84v-8.67h4v21.15z"/><path d="m297.84 131.71h1.65c1.92 0 2.81-.88 2.81-2.08v-.17a2.18 2.18 0 0 0 -2.47-2.2 4 4 0 0 0 -3.43 2l-2-1.82a6.31 6.31 0 0 1 5.54-2.77c3.38 0 5.69 1.67 5.69 4.35a3.77 3.77 0 0 1 -3.22 3.8v.18a4 4 0 0 1 3.5 4.06c0 3-2.47 4.91-6.16 4.91a6.47 6.47 0 0 1 -6-3.11l2.33-1.77a3.85 3.85 0 0 0 3.62 2.3c1.85 0 2.88-1 2.88-2.52v-.16c0-1.54-1.13-2.35-3.12-2.35h-1.65z"/><path d="m430.07 425.53v-8.94h-8.84v8.94h-4.01v-21.15h4.01v8.67h8.84v-8.67h4.01v21.15z"/><path d="m462.23 425.89c-5.59 0-9.15-3.66-9.15-10.78s3.56-11.11 9.15-11.11c3.79 0 6.25 1.6 7.74 4.88l-3.43 1.81a4.2 4.2 0 0 0 -4.31-3.15c-3 0-4.9 2.15-4.9 5.76v3.33c0 3.64 1.92 5.7 4.9 5.7a4.7 4.7 0 0 0 4.58-3.36l3.25 1.91a8.14 8.14 0 0 1 -7.83 5.01z"/><path d="m441.74 422h1.66c1.91 0 2.8-.89 2.8-2.08v-.17a2.18 2.18 0 0 0 -2.47-2.2 4 4 0 0 0 -3.43 2l-2-1.82a6.3 6.3 0 0 1 5.54-2.77c3.38 0 5.68 1.67 5.68 4.35a3.77 3.77 0 0 1 -3.21 3.8v.15a4 4 0 0 1 3.5 4.06c0 2.95-2.47 4.91-6.17 4.91a6.46 6.46 0 0 1 -5.94-3.11l2.32-1.77a3.85 3.85 0 0 0 3.62 2.29c1.85 0 2.88-.95 2.88-2.51v-.17c0-1.53-1.12-2.34-3.11-2.34h-1.66z"/><path d="m420.08 358.55-6.38-10.85-2.19-4.39h-.09v15.24h-3.8v-21.15h4.41l6.38 10.85 2.19 4.39h.09v-15.24h3.79v21.15z"/><path d="m420.08 238.94-6.38-10.85-2.19-4.39h-.09v15.24h-3.8v-21.15h4.41l6.38 10.85 2.19 4.39h.09v-15.24h3.79v21.15z"/><path d="m284.17 223-6.38-10.85-2.19-4.4h-.09v15.25h-3.8v-21.16h4.41l6.38 10.85 2.19 4.4h.09v-15.25h3.79v21.16z"/></g><g clip-path="url(#b)"><g fill="#161616" opacity=".5"><path d="m712.61 547.38q-12.36 0-24.75-1.14a268.45 268.45 0 0 1 -211.86-394.33 268.43 268.43 0 1 1 236.61 395.47zm.07-535.69a265.93 265.93 0 1 0 24.61 1.13q-12.29-1.12-24.61-1.13z"/><path d="m708.13 538.67q-10.57 0-21.13-.83a244.88 244.88 0 0 1 -175.9-94.3 276.47 276.47 0 0 1 -57.51-190.4 244.89 244.89 0 0 1 94.31-175.91 276.48 276.48 0 0 1 190.39-57.5 244.89 244.89 0 0 1 175.91 94.27 276.48 276.48 0 0 1 57.5 190.39 244.83 244.83 0 0 1 -94.3 175.91 277.18 277.18 0 0 1 -169.27 58.33zm9-518.27a275.59 275.59 0 0 0 -168.35 58 243.37 243.37 0 0 0 -93.73 174.85 275 275 0 0 0 57.19 189.35 243.32 243.32 0 0 0 174.84 93.73 274.88 274.88 0 0 0 189.35-57.18 243.37 243.37 0 0 0 93.77-174.84 274.92 274.92 0 0 0 -57.2-189.31 243.37 243.37 0 0 0 -174.83-93.77q-10.48-.82-21-.83z"/><path d="m703.29 530c-38.86 0-77.19-8.47-111-26.62-115.46-61.9-166.1-229.57-104.2-345s229.51-166.1 344.97-104.2 166.09 229.56 104.2 345c-43.75 81.61-140.34 130.82-233.97 130.82zm-110.35-27.93c54.65 29.3 124.42 34.49 191.44 14.25s122.26-63.19 151.55-117.83 34.49-124.42 14.25-191.44-63.18-122.26-117.83-151.55-124.42-34.5-191.44-14.25-122.26 63.19-151.55 117.83-34.49 124.42-14.25 191.44 63.19 122.26 117.83 151.55z"/><path d="m698.2 521.35q-6.51 0-12.92-.32c-33.44-1.68-63.66-9.64-89.81-23.66s-49.51-34.78-69.42-61.7c-18.7-25.29-33.68-55.52-43.33-87.45s-13.9-65.39-12.32-96.8c1.69-33.44 9.65-63.66 23.67-89.81s34.77-49.51 61.7-69.42c25.28-18.71 55.52-33.69 87.44-43.33s65.4-13.86 96.79-12.32c33.45 1.68 63.66 9.65 89.81 23.67s49.51 34.77 69.43 61.7c18.7 25.28 33.68 55.51 43.32 87.44s13.9 65.39 12.32 96.8c-1.68 33.45-9.64 63.66-23.66 89.81s-34.78 49.51-61.7 69.43c-25.29 18.7-55.52 33.68-87.45 43.32a292.8 292.8 0 0 1 -83.87 12.64zm28.89-483.63a291.27 291.27 0 0 0 -83.45 12.58c-31.76 9.59-61.84 24.49-87 43.09-26.74 19.78-47.36 43-61.27 68.93s-21.82 56-23.49 89.18c-1.57 31.23 2.67 64.53 12.26 96.29s24.49 61.84 43.09 87c19.78 26.75 43 47.36 68.93 61.27s56 21.82 89.18 23.49c31.23 1.57 64.53-2.67 96.29-12.26s61.84-24.49 87-43.09c26.75-19.78 47.36-43 61.27-68.93s21.82-55.95 23.49-89.17c1.57-31.24-2.67-64.54-12.26-96.3s-24.49-61.84-43.09-87c-19.78-26.74-43-47.36-68.92-61.27s-56-21.82-89.18-23.49q-6.37-.32-12.85-.32z"/><path d="m693.27 512.78q-4.46 0-8.85-.16c-32.64-1.13-61.48-8.29-85.72-21.28s-46.17-33-65.18-59.61c-17.77-24.83-32.21-54.65-41.75-86.24s-14-64.42-13-94.93c1.13-32.64 8.29-61.48 21.29-85.72s33-46.17 59.6-65.18c24.83-17.77 54.65-32.21 86.24-41.75s64.42-14 94.93-13c32.64 1.13 61.49 8.29 85.72 21.28s46.17 33.05 65.18 59.61c17.77 24.83 32.21 54.65 41.75 86.24s14 64.42 13 94.93c-1.14 32.64-8.3 61.48-21.29 85.72s-33.05 46.17-59.61 65.18c-24.83 17.77-54.65 32.21-86.24 41.75a301.31 301.31 0 0 1 -86.07 13.16zm38.73-466.49a299.49 299.49 0 0 0 -85.66 13.06c-31.43 9.49-61.1 23.85-85.79 41.53-26.37 18.88-46.28 40.64-59.16 64.67s-20 52.65-21.11 85.06c-1.06 30.35 3.4 63 12.9 94.45s23.85 61.1 41.53 85.8c18.88 26.37 40.64 46.27 64.67 59.15s52.65 20 85.06 21.12c30.36 1 63-3.41 94.45-12.91s61.1-23.85 85.8-41.53c26.4-18.88 46.31-40.63 59.18-64.69s20-52.65 21.12-85.06c1-30.35-3.41-63-12.91-94.45s-23.85-61.1-41.53-85.8c-18.88-26.37-40.63-46.27-64.67-59.15s-52.65-20-85.06-21.11q-4.36-.14-8.82-.14z"/><path d="m688.44 504.27c-33 0-63-6.35-86.51-19-43.38-23.26-81.18-76.55-101.11-142.55s-17.95-131.31 5.31-174.69 76.54-81.14 142.54-101.03 131.33-18 174.69 5.26 81.18 76.55 101.11 142.55 17.95 131.31-5.3 174.69-76.55 81.18-142.55 101.11c-30.22 9.13-60.29 13.66-88.18 13.66zm-85.8-20.27c43 23.08 107.92 25 173.55 5.2s118.58-57.35 141.66-100.39 25-107.91 5.19-173.54-57.35-118.61-100.39-141.68-107.91-25-173.54-5.2-118.59 57.35-141.66 100.39-25 107.91-5.19 173.55 57.34 118.58 100.38 141.67z"/><path d="m682.85 495.82h-.15c-30.57 0-57.39-5.74-77.53-16.54s-39.76-30-56.7-55.42c-15.91-23.92-29.26-52.86-38.6-83.86s-14.27-62.46-14.25-91.19c0-30.57 5.73-57.39 16.53-77.54s30-39.75 55.43-56.69c23.91-15.91 52.9-29.26 83.83-38.6s62.46-14.25 91.18-14.26c30.58 0 57.39 5.74 77.54 16.54s39.75 30 56.69 55.43c15.92 23.91 29.27 52.9 38.61 83.82s14.26 62.46 14.25 91.19c0 30.58-5.74 57.39-16.54 77.54s-29.97 39.76-55.42 56.76c-23.92 15.92-52.9 29.26-83.83 38.61s-62.35 14.21-91.04 14.21zm59.59-432.56c-28.54 0-59.86 4.9-90.6 14.18s-59.64 22.56-83.43 38.42c-25.25 16.8-44.25 36.22-54.93 56.15s-16.35 46.5-16.36 76.83c0 28.58 4.89 60 14.18 90.75s22.59 59.64 38.42 83.43c16.8 25.26 36.22 44.25 56.15 54.93s46.5 16.35 76.84 16.37h.14c28.54 0 59.87-4.91 90.6-14.19s59.64-22.58 83.44-38.42c25.25-16.8 44.24-36.22 54.93-56.15s16.34-46.5 16.36-76.83c0-28.58-4.89-60-14.19-90.75s-22.58-59.64-38.42-83.43c-16.8-25.25-36.22-44.25-56.15-54.93s-46.5-16.35-76.83-16.36z"/><path d="m677.45 487.45c-27.87 0-51.67-4.88-69.05-14.2-18.29-9.81-36.4-28.25-52.4-53.33-15-23.46-27.8-52-37-82.63s-14.48-61.47-15-89.29c-.54-29.77 4.36-55.16 14.16-73.45s28.25-36.43 53.34-52.46c23.45-15 52-27.79 82.62-37s61.48-14.39 89.31-14.89c29.76-.54 55.16 4.36 73.45 14.16s36.42 28.25 52.45 53.33c15 23.46 27.79 52 37 82.63s14.39 61.47 14.89 89.31c.54 29.76-4.36 55.16-14.16 73.44s-28.25 36.43-53.33 52.46c-23.46 15-52 27.79-82.62 37s-61.48 14.39-89.31 14.89c-1.43.02-2.9.03-4.35.03zm-68.34-15.52c18.06 9.68 43.2 14.51 72.71 14 27.69-.5 58.44-5.63 88.9-14.83s58.91-21.95 82.25-36.86c24.87-15.89 43.13-33.83 52.82-51.89s14.52-43.21 14-72.72c-.5-27.69-5.63-58.43-14.83-88.9s-21.96-58.93-36.88-82.27c-15.88-24.87-33.83-43.13-51.89-52.81s-43.21-14.52-72.72-14c-27.69.5-58.43 5.63-88.9 14.83s-58.9 22-82.25 36.86c-24.87 15.89-43.13 33.83-52.81 51.9s-14.52 43.2-14 72.71c.5 27.69 5.63 58.44 14.83 88.9s21.95 58.91 36.86 82.25c15.9 24.9 33.8 43.14 51.91 52.83z"/><path d="m672.15 479.18c-24.65 0-45.61-4-60.52-12-32.09-17.21-64.15-68-83.67-132.66s-21-124.7-3.75-156.79 68-64.15 132.66-83.67 124.7-20.95 156.79-3.75 64.15 68 83.67 132.66 20.95 124.7 3.75 156.79-68.08 64.24-132.66 83.71c-34.59 10.45-67.88 15.71-96.27 15.71zm-59.81-13.28c31.75 17 91.39 15.54 155.65-3.87s114.74-51.18 131.77-82.94 15.54-91.39-3.87-155.65-51.18-114.74-82.89-131.76-91.44-15.55-155.7 3.86-114.74 51.18-131.76 82.94-15.54 91.39 3.86 155.65 51.18 114.74 82.94 131.77z"/><path d="m666.26 471c-21.69 0-39.29-3.35-51.4-9.84-14.59-7.83-29.8-24.82-44-49.15-13.12-22.55-24.84-50.28-33.88-80.21s-14.63-59.52-16.18-85.56c-1.67-28.1 1.59-50.67 9.41-65.27s24.82-29.8 49.15-44c22.55-13.13 50.28-24.84 80.21-33.88s59.55-14.57 85.59-16.09c28.1-1.67 50.68 1.59 65.27 9.41s29.8 24.82 44 49.15c13.13 22.55 24.84 50.28 33.88 80.21s14.64 59.52 16.18 85.56c1.67 28.1-1.59 50.67-9.41 65.27s-24.82 29.8-49.15 44c-22.54 13.13-50.28 24.84-80.21 33.88s-59.51 14.64-85.56 16.18q-7.16.34-13.9.34zm93-383c-79.52 0-201.67 45.19-227.65 93.66-7.7 14.35-10.89 36.65-9.24 64.47 1.54 25.93 7.11 55.4 16.12 85.22s20.67 57.44 33.74 79.88c14 24.09 29 40.89 43.38 48.59s36.65 10.88 64.48 9.23c25.91-1.49 55.35-7.05 85.17-16.05s57.44-20.68 79.88-33.75c24.09-14 40.89-29 48.59-43.38 32.66-60.92-23.08-245.49-84-278.16-12.46-6.71-30.08-9.66-50.51-9.66z"/><path d="m660.64 463c-18.35 0-32.86-2.65-42.55-7.84-12.76-6.84-26.5-23.12-39.72-47.06-12.2-22.09-23.37-49.41-32.31-79s-14.76-58.53-16.82-83.68c-2.24-27.27.19-48.42 7-61.19s23.12-26.5 47.07-39.72c22.08-12.2 49.4-23.38 79-32.31s58.56-14.76 83.69-16.82c27.27-2.24 48.43.19 61.19 7s26.5 23.12 39.73 47.06c12.2 22.09 23.37 49.41 32.31 79s14.77 58.56 16.83 83.71c2.24 27.27-.2 48.42-7 61.19s-23.16 26.5-47.06 39.72c-22.09 12.2-49.41 23.38-79 32.32s-58.53 14.75-83.68 16.81q-9.91.81-18.68.81zm104.05-366.93c-5.8 0-12 .26-18.55.8-25 2.06-53.87 7.85-83.37 16.76s-56.71 20-78.71 32.19c-23.69 13.09-39.76 26.61-46.46 39.12s-9.08 33.38-6.87 60.36c2.06 25 7.86 53.87 16.76 83.36s20 56.72 32.19 78.71c13.09 23.69 26.62 39.76 39.12 46.47s33.38 9.07 60.36 6.86c25-2.06 53.87-7.85 83.36-16.76s56.72-20 78.71-32.19c23.7-13.09 39.76-26.61 46.47-39.12s9.08-33.38 6.86-60.36c-2.06-25-7.85-53.87-16.76-83.36s-20-56.72-32.19-78.71c-13.08-23.69-26.61-39.76-39.12-46.47-9.49-5.07-23.73-7.66-41.8-7.66z"/><path d="m654.9 455.18c-13.86 0-25.62-1.78-33.57-6.05-13.82-7.41-26.93-28.55-35.49-45-11.11-21.31-22-48.94-30.74-77.79-14.5-48-26.56-113.23-12.8-138.89 7.41-13.82 28.55-26.93 45-35.49 21.32-11.11 48.94-22 77.79-30.74 48-14.5 113.23-26.56 138.9-12.8 13.82 7.41 26.92 28.55 35.48 45 11.11 21.32 22 48.94 30.74 77.79 14.5 48 26.56 113.23 12.8 138.89-7.41 13.82-28.55 26.93-45 35.49-21.32 11.11-48.95 22-77.79 30.74-33.14 10.01-74.45 18.85-105.32 18.85zm115.28-351.25a222.36 222.36 0 0 0 -23.18 1.34c-23.82 2.54-52.77 8.72-81.53 17.41s-56.26 19.56-77.47 30.63c-23.29 12.14-38.62 24.19-44.35 34.86s-7.27 30.12-4.48 56.24c2.53 23.81 8.72 52.76 17.4 81.52s19.56 56.29 30.63 77.53c12.14 23.29 24.19 38.63 34.87 44.35s30.11 7.27 56.23 4.49c23.81-2.54 52.76-8.72 81.52-17.41s56.29-19.56 77.53-30.63c23.29-12.14 38.63-24.19 44.35-34.86s7.27-30.12 4.49-56.24c-2.54-23.81-8.72-52.76-17.41-81.52s-19.56-56.29-30.63-77.53c-12.13-23.29-24.19-38.63-34.86-44.35-7.29-3.87-18.5-5.83-33.11-5.83z"/><path d="m650 447.45c-10.09 0-19.42-1.12-25.44-4.35-11.53-6.18-23.35-26.73-31.25-42.89-10.19-20.87-20.55-48.06-29.16-76.58s-15-56.9-18.1-79.92c-2.37-17.82-3.9-41.49 2.28-53s26.74-23.36 42.89-31.25c20.87-10.19 48.06-20.55 76.58-29.16s56.9-15 79.92-18.1c17.82-2.37 41.49-3.9 53 2.28s23.36 26.74 31.25 42.89c10.19 20.87 20.55 48.06 29.16 76.58s15 56.9 18.1 79.92c2.37 17.82 3.9 41.49-2.28 53s-26.73 23.36-42.89 31.25c-20.87 10.19-48.06 20.55-76.58 29.16s-56.89 15-79.92 18.1a216.09 216.09 0 0 1 -27.56 2.07zm-24.73-5.67c19.67 10.54 80.37-.41 131.79-15.94s108-40 118.58-59.68-.4-80.36-15.94-131.79-40-108-59.68-118.58-80.36.41-131.79 15.94-108 40-118.58 59.68.41 80.36 15.94 131.79 40.01 108.03 59.68 118.58z"/><path d="m645.37 440c-7.77 0-13.84-.9-17.58-2.9-31.06-16.68-90.08-212.1-73.43-243.17s212.08-90.08 243.14-73.43c16.08 8.62 39 64.56 54.59 116.17s27.46 110.89 18.84 127-64.56 39-116.17 54.59c-39.61 11.94-83.76 21.74-109.39 21.74zm-16.87-4.22c13.59 7.29 64.16-.33 125.83-18.95s108-40.27 115.28-53.87-.33-64.16-19-125.82-40.27-108-53.87-115.29-64.16.33-125.82 19-108 40.27-115.29 53.86.33 64.16 19 125.83 40.28 107.92 53.87 115.21z"/><path d="m642 432.8q-7.62 0-10.93-1.76c-5.59-3-13.25-16-22.76-38.72-8.36-20-17.6-46.3-26-74.15s-15.31-54.9-19.44-76.17c-4.65-24.16-5.48-39.25-2.48-44.85s16-13.25 38.72-22.76c20-8.36 46.3-17.6 74.15-26s54.91-15.3 76.16-19.38c24.16-4.65 39.25-5.48 44.85-2.48s13.26 16 22.76 38.72c8.37 20 17.6 46.3 26 74.15s15.29 54.9 19.38 76.16c4.64 24.16 5.47 39.25 2.47 44.85s-16 13.26-38.72 22.76c-20 8.36-46.3 17.6-74.15 26s-54.9 15.3-76.16 19.39c-14.67 2.83-26.01 4.24-33.85 4.24zm-10.22-3.08c3.64 1.95 14.2 3.07 43.86-2.63 21.2-4.07 48.2-10.94 76-19.34s54.09-17.62 74-26c27.86-11.67 36-18.46 38-22.09 12.1-22.57-47.45-219.75-70-231.85s-219.75 47.45-231.85 70 47.37 219.81 69.94 231.91z"/></g></g></svg>