<svg enable-background="new 0 0 169.6 158" viewBox="0 0 169.6 158" xmlns="http://www.w3.org/2000/svg" xmlns:xlink="http://www.w3.org/1999/xlink"><clipPath id="a"><path d="m37 56.5 96.1-.1-11.6-31h-73.8z"/></clipPath><clipPath id="b"><path d="m34.7 63.1h99.8l-12.9-37.5h-73.9z"/></clipPath><clipPath id="c"><path d="m7.9 134.6h153.7l-29.4-77.9h-95.2z"/></clipPath><clipPath id="d"><path d="m34.9 56.4h99.8l-13-37.5h-73.9z"/></clipPath><linearGradient id="e" gradientUnits="userSpaceOnUse" x1="5.384" x2="164.2491" y1="135.5089" y2="135.5089"><stop offset=".000380609" stop-color="#ae987e"/><stop offset=".01886319" stop-color="#a48c70"/><stop offset=".05419115" stop-color="#967c5c"/><stop offset=".0893295" stop-color="#8e7250"/><stop offset=".1238" stop-color="#8b6f4b"/><stop offset=".1873" stop-color="#8c704d"/><stop offset=".2102" stop-color="#917654"/><stop offset=".2265" stop-color="#997f60"/><stop offset=".2396" stop-color="#a48d71"/><stop offset=".2508" stop-color="#b39e87"/><stop offset=".2604" stop-color="#c4b3a0"/><stop offset=".2684" stop-color="#b39e87"/><stop offset=".2777" stop-color="#a48d71"/><stop offset=".2888" stop-color="#997f60"/><stop offset=".3024" stop-color="#917654"/><stop offset=".3215" stop-color="#8c704d"/><stop offset=".3746" stop-color="#8b6f4b"/><stop offset=".4064" stop-color="#8d714e"/><stop offset=".4263" stop-color="#927856"/><stop offset=".4429" stop-color="#9c8465"/><stop offset=".4577" stop-color="#a99479"/><stop offset=".4712" stop-color="#bbaa94"/><stop offset=".4839" stop-color="#d1c4b5"/><stop offset=".4957" stop-color="#eae3db"/><stop offset=".5" stop-color="#f4f0eb"/><stop offset=".5017" stop-color="#f0ebe5"/><stop offset=".515" stop-color="#d5cabc"/><stop offset=".5291" stop-color="#beae99"/><stop offset=".5439" stop-color="#ac977d"/><stop offset=".5598" stop-color="#9d8567"/><stop offset=".577" stop-color="#937957"/><stop offset=".5968" stop-color="#8d714e"/><stop offset=".6246" stop-color="#8b6f4b"/><stop offset=".6836" stop-color="#8c704d"/><stop offset=".7049" stop-color="#917654"/><stop offset=".72" stop-color="#997f60"/><stop offset=".7323" stop-color="#a48d71"/><stop offset=".7426" stop-color="#b39e87"/><stop offset=".7515" stop-color="#c4b3a0"/><stop offset=".7602" stop-color="#b5a18a"/><stop offset=".7721" stop-color="#a68f73"/><stop offset=".7859" stop-color="#9a8061"/><stop offset=".8025" stop-color="#917655"/><stop offset=".8246" stop-color="#8c704e"/><stop offset=".875" stop-color="#8b6f4b"/><stop offset=".9182" stop-color="#8d714e"/><stop offset=".9485" stop-color="#937857"/><stop offset=".9749" stop-color="#9e8567"/><stop offset=".9989" stop-color="#ad977d"/><stop offset="1" stop-color="#ae987e"/></linearGradient><g fill="none" stroke="#fff" stroke-miterlimit="10" stroke-width=".3023"><path d="m84.8 9.9v31.9"/><path d="m79.4 6.5 10.7 38.7"/><path d="m76.5 12 16.5 27.7"/><path d="m70.1 11.7 29.3 28.3"/><path d="m70.5 17.9 28.6 15.9"/><path d="m64.8 20.7 40 10.3"/><path d="m68.2 25.8h33.1"/><path d="m64.8 31 40-10.3"/><path d="m70.5 33.8 28.6-15.9"/><path d="m70.1 40 29.3-28.3"/><path d="m76.5 39.7 16.5-27.7"/><path d="m79.4 45.2 10.7-38.7"/></g><path d="m85.8 19.5h36.8v9.4h-36.8z" fill="#8b6f4b"/><path d="m46.7 19.5h36.8v9.4h-36.8z" fill="#8b6f4b"/><g clip-path="url(#a)"><path d="m159.3 135h-149.4l-2.2 6.3h153.8z" fill="#231f20"/></g><g clip-path="url(#a)" fill="none" stroke="#231f20" stroke-miterlimit="10" stroke-width=".3023"><path d="m118.4 63.1c.1.3-.3.6-.7.6-.5 0-.9-.2-1-.6"/><path d="m120.8 63.1c1.1 1.4.3 3.3-2.5 3.3s-4.4-1.9-4-3.3"/><path d="m123.1 63.1c2.1 2.6.9 6-4.2 6s-7.9-3.5-7-6"/><path d="m125.5 63.1c3.1 3.7 1.4 8.7-6 8.7s-11.3-5.1-9.9-8.7"/><path d="m127.9 63.1c4.1 4.8 2 11.5-7.7 11.5s-14.8-6.7-12.9-11.5"/><path d="m130.2 63.1c5.1 5.9 2.5 14.2-9.5 14.2s-18.3-8.3-15.9-14.2"/><path d="m132.6 63.1c6.1 7 3.1 16.9-11.2 16.9s-21.8-9.9-18.9-16.9"/><path d="m135 63.1c7.1 8.2 3.7 19.6-13 19.6s-25.3-11.5-21.9-19.6"/><path d="m137.3 63.1c8.1 9.3 4.2 22.4-14.7 22.4s-28.7-13.1-24.9-22.4"/><path d="m139.7 63.1c9.1 10.4 4.8 25.1-16.4 25.1-21.3 0-32.3-14.7-27.9-25.1"/><path d="m142.1 63.1c10.1 11.5 5.3 27.8-18.2 27.8s-35.7-16.3-30.9-27.8"/><path d="m144.4 63.1c11.1 12.6 5.9 30.5-19.9 30.5s-39.2-17.9-33.9-30.5"/><path d="m146.8 63.1c12.1 13.8 6.5 33.3-21.7 33.3s-42.6-19.5-36.8-33.3"/><path d="m149.2 63.1c13.1 14.9 7 36-23.4 36-30.5 0-46.1-21.1-39.8-36"/><path d="m151.5 63.1c14.1 16 7.6 38.7-25.2 38.7s-49.6-22.7-42.8-38.7"/><path d="m153.9 63.1c15.1 17.1 8.1 41.4-26.9 41.4s-53.1-24.3-45.8-41.4"/><path d="m156.3 63.1c16.1 18.3 8.7 44.2-28.7 44.2s-56.6-25.9-48.8-44.2"/><path d="m158.6 63.1c17.1 19.4 9.3 46.9-30.4 46.9s-60-27.5-51.8-46.9"/><path d="m161 63.1c18.1 20.5 9.8 49.6-32.2 49.6s-63.5-29.1-54.7-49.6"/><path d="m163.4 63.1c19.1 21.6 10.4 52.3-33.9 52.3s-67-30.7-57.7-52.3"/><path d="m165.7 63.1c20.1 22.7 10.9 55.1-35.7 55.1s-70.5-32.3-60.7-55.1"/><path d="m168.1 63.1c21.1 23.9 11.5 57.8-37.4 57.8s-74-33.9-63.7-57.8"/><path d="m170.5 63.1c22.1 25 12.1 60.5-39.2 60.5s-77.4-35.5-66.7-60.5"/><path d="m172.8 63.1c23.1 26.1 12.6 63.2-40.9 63.2s-80.9-37.1-69.7-63.2"/><path d="m175.2 63.1c24.1 27.2 13.2 66-42.7 66s-84.4-38.7-72.7-66"/><path d="m177.6 63.1c25.1 28.4 13.7 68.7-44.4 68.7s-87.9-40.3-75.7-68.7"/><path d="m179.9 63.1c26.1 29.5 14.3 71.4-46.2 71.4-60.4 0-91.4-41.9-78.7-71.4"/><path d="m182.3 63.1c27.1 30.6 14.8 74.1-47.9 74.1-62.8 0-94.8-43.5-81.6-74.1"/><path d="m184.7 63.1c28.1 31.7 15.4 76.9-49.7 76.9-65 0-98.3-45.2-84.6-76.9"/><path d="m187 63.1c29.1 32.8 16 79.6-51.4 79.6s-101.7-46.8-87.6-79.6"/><path d="m189.4 63.1c30.1 34 16.5 82.3-53.1 82.3s-105.3-48.3-90.6-82.3"/><path d="m191.8 63.1c31.1 35.1 17.1 85-54.9 85s-108.7-49.9-93.6-85"/><path d="m194.1 63.1c32.1 36.2 17.6 87.8-56.6 87.8s-112.2-51.6-96.6-87.8"/><path d="m196.5 63.1c33.1 37.3 18.2 90.5-58.4 90.5s-115.7-53.1-99.6-90.5"/><path d="m198.9 63.1c34.1 38.5 18.8 93.2-60.1 93.2s-119.2-54.8-102.6-93.2"/><path d="m201.3 63.1c35.1 39.6 19.3 95.9-61.9 95.9s-122.7-56.4-105.5-95.9"/><path d="m203.6 63.1c36.1 40.7 19.9 98.7-63.6 98.7s-126.1-58-108.5-98.7"/><path d="m206 63.1c37.1 41.8 20.4 101.4-65.4 101.4s-129.6-59.6-111.5-101.4"/><path d="m208.4 63.1c38.1 42.9 21 104.1-67.1 104.1s-133.2-61.2-114.6-104.1"/><path d="m210.7 63.1c39.1 44.1 21.6 106.8-68.9 106.8s-136.5-62.7-117.4-106.8"/><path d="m213.1 63.1c40.1 45.2 22.1 109.6-70.6 109.6-92.8 0-140.1-64.4-120.5-109.6"/></g><g clip-path="url(#a)" fill="none" stroke="#231f20" stroke-miterlimit="10" stroke-width=".3023"><path d="m52.5 63.1c-.1.3-.5.6-1 .6s-.8-.2-.7-.6"/><path d="m54.9 63.1c.4 1.4-1.2 3.3-4 3.3s-3.5-1.9-2.5-3.3"/><path d="m57.3 63.1c.9 2.6-1.9 6-7 6s-6.3-3.5-4.2-6"/><path d="m59.6 63.1c1.4 3.7-2.5 8.7-9.9 8.7s-9-5.1-6-8.7"/><path d="m62 63.1c1.9 4.8-3.2 11.5-12.9 11.5s-11.8-6.7-7.7-11.5"/><path d="m64.4 63.1c2.4 5.9-3.9 14.2-15.9 14.2s-14.5-8.3-9.5-14.2"/><path d="m66.7 63.1c2.9 7-4.6 16.9-18.9 16.9s-17.3-9.9-11.2-16.9"/><path d="m69.1 63.1c3.4 8.2-5.3 19.6-21.9 19.6s-20-11.5-13-19.6"/><path d="m71.5 63.1c3.9 9.3-6 22.4-24.9 22.4s-22.8-13.1-14.7-22.4"/><path d="m73.8 63.1c4.3 10.4-6.6 25.1-27.9 25.1-21.2 0-25.5-14.7-16.4-25.1"/><path d="m76.2 63.1c4.8 11.5-7.3 27.8-30.9 27.8s-28.2-16.3-18.1-27.8"/><path d="m78.6 63.1c5.3 12.6-8 30.5-33.8 30.5s-31-17.9-19.9-30.5"/><path d="m80.9 63.1c5.8 13.8-8.7 33.3-36.8 33.3s-33.8-19.5-21.7-33.3"/><path d="m83.3 63.1c6.3 14.9-9.4 36-39.8 36-30.5 0-36.5-21.1-23.4-36"/><path d="m85.7 63.1c6.8 16-10 38.7-42.8 38.7s-39.3-22.7-25.2-38.7"/><path d="m88 63.1c7.3 17.1-10.7 41.4-45.8 41.4s-42-24.3-26.9-41.4"/><path d="m90.4 63.1c7.8 18.3-11.4 44.2-48.8 44.2-37.3 0-44.7-25.9-28.6-44.2"/><path d="m92.8 63.1c8.3 19.4-12.1 46.9-51.8 46.9-39.7 0-47.5-27.5-30.4-46.9"/><path d="m95.1 63.1c8.8 20.5-12.8 49.6-54.8 49.6s-50.2-29.1-32.1-49.6"/><path d="m97.5 63.1c9.3 21.6-13.4 52.3-57.7 52.3s-53-30.7-33.9-52.3"/><path d="m99.9 63.1c9.7 22.7-14.1 55.1-60.7 55.1-46.6 0-55.8-32.3-35.7-55.1"/><path d="m102.3 63.1c10.2 23.9-14.8 57.8-63.7 57.8-49 0-58.6-33.9-37.5-57.8"/><path d="m104.6 63.1c10.7 25-15.5 60.5-66.7 60.5s-61.3-35.5-39.2-60.5"/><path d="m107 63.1c11.2 26.1-16.2 63.2-69.7 63.2s-64-37.1-40.9-63.2"/><path d="m109.4 63.1c11.7 27.2-16.9 66-72.7 66s-66.8-38.7-42.7-66"/><path d="m111.7 63.1c12.2 28.4-17.5 68.7-75.7 68.7-58.1 0-69.5-40.3-44.4-68.7"/><path d="m114.1 63.1c12.7 29.5-18.2 71.4-78.7 71.4-60.4 0-72.3-41.9-46.2-71.4"/><path d="m116.5 63.1c13.2 30.6-18.9 74.1-81.7 74.1s-75-43.5-47.9-74.1"/><path d="m118.8 63.1c13.7 31.7-19.6 76.9-84.6 76.9s-77.8-45.1-49.6-76.9"/><path d="m121.2 63.1c14.2 32.8-20.3 79.6-87.6 79.6s-80.5-46.7-51.4-79.6"/><path d="m123.6 63.1c14.7 34-20.9 82.3-90.6 82.3s-83.3-48.3-53.1-82.3"/><path d="m125.9 63.1c15.1 35.1-21.6 85-93.6 85s-86-49.9-54.9-85"/><path d="m128.3 63.1c15.6 36.2-22.3 87.8-96.6 87.8s-88.8-51.5-56.6-87.8"/><path d="m130.7 63.1c16.1 37.3-23 90.5-99.6 90.5s-91.5-53.1-58.4-90.5"/><path d="m133 63.1c16.6 38.5-23.7 93.2-102.6 93.2s-94.3-54.8-60.1-93.2"/><path d="m135.4 63.1c17.1 39.6-24.4 95.9-105.6 95.9s-97-56.4-61.9-95.9"/><path d="m137.8 63.1c17.6 40.7-25 98.7-108.5 98.7s-99.8-58-63.6-98.7"/><path d="m140.1 63.1c18.1 41.8-25.7 101.4-111.5 101.4s-102.5-59.6-65.4-101.4"/><path d="m142.5 63.1c18.6 42.9-26.4 104.1-114.5 104.1s-105.2-61.2-67.1-104.1"/><path d="m144.9 63.1c19.1 44.1-27.1 106.8-117.5 106.8s-108-62.8-68.9-106.8"/><path d="m147.2 63.1c19.6 45.2-27.8 109.6-120.5 109.6s-110.7-64.4-70.6-109.6"/></g><g clip-path="url(#a)"><g clip-path="url(#b)" fill="none" stroke="#fff" stroke-miterlimit="10" stroke-width=".3023"><path d="m85.1 25.6c0 .2-.3.3-.6.3s-.6-.1-.6-.3"/><path d="m86.9 25.6c0 .7-1.1 1.2-2.4 1.2-1.4 0-2.4-.5-2.4-1.2"/><path d="m88.7 25.6c0 1.1-1.8 2.1-4.2 2.1s-4.3-.9-4.2-2.1"/><path d="m90.5 25.6c.1 1.6-2.6 3-6 3s-6.1-1.4-6-3"/><path d="m92.3 25.6c.2 2.1-3.3 3.9-7.8 3.9s-8-1.8-7.8-3.9"/><path d="m94.1 25.6c.2 2.6-4.1 4.9-9.6 4.9-5.6 0-9.9-2.2-9.6-4.9"/><path d="m95.9 25.6c.3 3.1-4.8 5.8-11.4 5.8s-11.8-2.7-11.4-5.8"/><path d="m97.7 25.6c.4 3.6-5.5 6.8-13.2 6.8-7.8 0-13.7-3.1-13.2-6.8"/><path d="m99.5 25.6c.6 4.2-6.1 7.8-15 7.8s-15.6-3.6-15-7.8"/><path d="m101.3 25.6c.7 4.7-6.8 8.8-16.8 8.8s-17.5-4.1-16.8-8.8"/><path d="m103.1 25.6c.9 5.2-7.4 9.8-18.6 9.8s-19.5-4.6-18.6-9.8"/><path d="m104.9 25.6c1.1 5.7-8 10.9-20.4 10.9s-21.5-5.1-20.4-10.9"/><path d="m106.7 25.6c1.3 6.3-8.6 11.9-22.2 11.9s-23.5-5.6-22.2-11.9"/><path d="m108.5 25.6c1.5 6.8-9.2 13-24 13s-25.5-6.2-24-13"/><path d="m110.3 25.6c1.8 7.4-9.7 14.1-25.8 14.1s-27.6-6.8-25.8-14.1"/><path d="m112.1 25.6c2 7.9-10.2 15.2-27.6 15.2s-29.6-7.3-27.6-15.2"/><path d="m113.9 25.6c2.3 8.5-10.7 16.4-29.4 16.4s-31.7-7.9-29.4-16.4"/><path d="m115.7 25.6c2.6 9-11.2 17.5-31.2 17.5s-33.8-8.5-31.2-17.5"/><path d="m117.5 25.6c2.9 9.6-11.6 18.7-33 18.7s-35.9-9.1-33-18.7"/><path d="m119.3 25.6c3.3 10.2-12 19.9-34.8 19.9s-38.1-9.8-34.8-19.9"/><path d="m121.1 25.6c3.7 10.7-12.4 21.2-36.6 21.2s-40.3-10.5-36.6-21.2"/><path d="m122.9 25.6c4 11.3-12.8 22.4-38.4 22.4-25.7 0-42.5-11.1-38.4-22.4"/><path d="m124.7 25.6c4.5 11.9-13.1 23.7-40.2 23.7s-44.7-11.8-40.2-23.7"/><path d="m126.5 25.6c4.9 12.5-13.4 25-42 25s-46.9-12.5-42-25"/><path d="m128.3 25.6c5.3 13.1-13.7 26.4-43.8 26.4s-49.1-13.3-43.8-26.4"/><path d="m130.1 25.6c5.8 13.7-13.9 27.7-45.6 27.7s-51.4-14-45.6-27.7"/><path d="m131.9 25.6c6.3 14.3-14.1 29.1-47.4 29.1s-53.7-14.8-47.4-29.1"/><path d="m133.7 25.6c6.9 15-14.3 30.5-49.2 30.5s-56-15.6-49.2-30.5"/><path d="m135.5 25.6c7.4 15.6-14.5 32-51 32s-58.4-16.4-50.9-32"/><path d="m137.3 25.6c8 16.2-14.6 33.5-52.8 33.5-38.3 0-60.8-17.3-52.7-33.5"/><path d="m139.1 25.6c8.6 16.9-14.6 35-54.6 35s-63.2-18.1-54.5-35"/><path d="m140.9 25.6c9.2 17.5-14.7 36.5-56.4 36.5s-65.6-19-56.3-36.5"/><path d="m142.7 25.6c9.8 18.2-14.7 38.1-58.2 38.1-43.6 0-68-20-58.1-38.1"/><path d="m144.5 25.6c10.5 18.8-14.6 39.7-60 39.7s-70.6-20.9-60-39.7"/><path d="m146.3 25.6c11.2 19.5-14.6 41.4-61.9 41.4s-73-21.9-61.7-41.4"/><path d="m148.1 25.6c11.9 20.2-14.4 43.1-63.6 43.1s-75.6-23-63.6-43.1"/><path d="m149.9 25.6c12.7 20.8-14.2 44.8-65.4 44.8s-78.1-24-65.3-44.8"/><path d="m151.7 25.6c13.5 21.5-14 46.6-67.2 46.6s-80.6-25-67.1-46.6"/></g></g><path d="m52.9 48h63.9v16h-63.9z" fill="#8b6f4b"/><path d="m32.1 48h18.4v16h-18.4z" fill="#8b6f4b"/><path d="m119.3 48h18.5v16h-18.5z" fill="#8b6f4b"/><g clip-path="url(#c)" fill="none" stroke="#fff" stroke-miterlimit="10" stroke-width=".3023"><path d="m52.7 56.4c-.1.3-.5.6-1 .6s-.8-.2-.7-.6"/><path d="m56.8 56.4c.8 2.3-1.7 5.3-6.2 5.3s-5.6-3-3.8-5.3"/><path d="m60.9 56.4c1.6 4.2-2.9 10-11.4 10s-10.4-5.8-6.8-10"/><path d="m65 56.4c2.5 6.2-4.1 14.8-16.6 14.8s-15.1-8.6-9.8-14.8"/><path d="m69.2 56.4c3.3 8.1-5.3 19.6-21.8 19.6s-19.9-11.5-12.9-19.6"/><path d="m73.3 56.4c4.2 10.1-6.4 24.3-27 24.3-20.5 0-24.7-14.2-15.9-24.3"/><path d="m77.4 56.4c5.1 12-7.6 29-32.2 29s-29.5-17-19-29"/><path d="m81.5 56.4c5.9 14-8.8 33.7-37.4 33.7s-34.3-19.8-22-33.7"/><path d="m85.6 56.4c6.8 15.9-10 38.5-42.5 38.5s-39.1-22.5-25.1-38.5"/><path d="m89.7 56.4c7.7 17.9-11.1 43.2-47.7 43.2-36.6 0-43.8-25.3-28.1-43.2"/><path d="m93.9 56.4c8.5 19.8-12.4 47.9-52.9 47.9s-48.7-28-31.2-47.9"/><path d="m98 56.4c9.3 21.8-13.5 52.7-58.1 52.7s-53.4-30.9-34.1-52.7"/><path d="m102.1 56.4c10.2 23.7-14.7 57.4-63.3 57.4s-58.2-33.7-37.2-57.4"/><path d="m106.2 56.4c11 25.7-15.9 62.2-68.5 62.2s-63-36.5-40.2-62.2"/><path d="m110.3 56.4c11.9 27.6-17.1 66.9-73.7 66.9s-67.7-39.3-43.3-66.9"/><path d="m114.4 56.4c12.7 29.6-18.3 71.6-78.9 71.6s-72.5-42.1-46.3-71.6"/><path d="m118.6 56.4c13.6 31.5-19.5 76.4-84.1 76.4-64.7 0-77.3-44.9-49.3-76.4"/><path d="m122.7 56.4c14.4 33.5-20.6 81.1-89.3 81.1s-82.1-47.6-52.4-81.1"/><path d="m126.8 56.4c15.3 35.4-21.8 85.9-94.5 85.9s-86.8-50.4-55.4-85.9"/><path d="m130.9 56.4c16.1 37.4-23 90.6-99.7 90.6s-91.6-53.2-58.5-90.6"/><path d="m135 56.4c17 39.3-24.2 95.3-104.9 95.3s-96.4-56-61.5-95.3"/><path d="m139.2 56.4c17.8 41.3-25.4 100.1-110.1 100.1s-101.2-58.8-64.6-100.1"/><path d="m143.3 56.4c18.7 43.3-26.6 104.9-115.3 104.9s-106-61.6-67.6-104.9"/><path d="m147.4 56.4c19.5 45.2-27.8 109.6-120.5 109.6s-110.7-64.4-70.6-109.6"/></g><g clip-path="url(#c)" fill="none" stroke="#fff" stroke-miterlimit="10" stroke-width=".3023"><path d="m116.7 56.4c.1.3.5.6 1 .6s.8-.2.7-.6"/><path d="m112.6 56.4c-.8 2.3 1.7 5.3 6.2 5.3s5.6-3 3.8-5.3"/><path d="m108.4 56.4c-1.6 4.2 2.9 10 11.4 10s10.4-5.8 6.8-10"/><path d="m104.3 56.4c-2.5 6.2 4.1 14.8 16.6 14.8s15.1-8.6 9.8-14.8"/><path d="m100.2 56.4c-3.3 8.1 5.2 19.6 21.8 19.6s19.9-11.4 12.9-19.5"/><path d="m96.1 56.4c-4.2 10.1 6.4 24.3 27 24.3 20.5 0 24.7-14.2 15.9-24.3"/><path d="m92 56.4c-5.1 12 7.6 29 32.2 29s29.5-17 19-29"/><path d="m87.8 56.4c-5.9 14 8.8 33.7 37.4 33.7s34.3-19.8 22-33.7"/><path d="m83.7 56.4c-6.8 15.9 10 38.5 42.5 38.5s39-22.6 25-38.5"/><path d="m79.6 56.4c-7.6 17.9 11.2 43.2 47.8 43.2s43.8-25.3 28.1-43.2"/><path d="m75.5 56.4c-8.5 19.8 12.4 47.9 52.9 47.9s48.6-28.1 31.1-47.9"/><path d="m71.4 56.4c-9.3 21.8 13.5 52.7 58.1 52.7s53.4-30.9 34.1-52.7"/><path d="m67.3 56.4c-10.2 23.7 14.7 57.4 63.3 57.4s58.2-33.7 37.2-57.4"/><path d="m63.1 56.4c-11 25.7 15.9 62.2 68.5 62.2s62.9-36.5 40.2-62.2"/><path d="m59 56.4c-11.9 27.6 17.1 66.9 73.7 66.9s67.7-39.3 43.3-66.9"/><path d="m54.9 56.4c-12.7 29.6 18.3 71.6 78.9 71.6s72.5-42.1 46.3-71.6"/><path d="m50.8 56.4c-13.6 31.5 19.5 76.4 84.1 76.4 64.7 0 77.3-44.9 49.3-76.4"/><path d="m46.7 56.4c-14.4 33.5 20.6 81.1 89.3 81.1s82.1-47.6 52.4-81.1"/><path d="m42.6 56.4c-15.3 35.4 21.8 85.9 94.5 85.9s86.8-50.4 55.4-85.9"/><path d="m38.4 56.4c-16.1 37.4 23 90.6 99.7 90.6s91.6-53.2 58.5-90.6"/><path d="m34.3 56.4c-17 39.3 24.2 95.3 104.9 95.3s96.4-56 61.5-95.3"/><path d="m30.2 56.4c-17.9 41.3 25.4 100.1 110.1 100.1s101.2-58.8 64.5-100.1"/><path d="m26.1 56.4c-18.7 43.3 26.6 104.9 115.3 104.9s106-61.6 67.6-104.8"/><path d="m22 56.4c-19.6 45.2 27.7 109.6 120.5 109.6 92.7 0 110.7-64.4 70.6-109.6"/></g><g clip-path="url(#c)"><g clip-path="url(#d)" fill="none" stroke="#231f20" stroke-miterlimit="10" stroke-width=".3023"><path d="m85.3 18.9c0 .2-.3.3-.6.3s-.6-.1-.6-.3"/><path d="m87.1 18.9c0 .7-1.1 1.2-2.4 1.2-1.4 0-2.4-.5-2.4-1.2"/><path d="m88.9 18.9c0 1.1-1.8 2.1-4.2 2.1s-4.3-.9-4.2-2.1"/><path d="m90.7 18.9c.1 1.6-2.6 3-6 3s-6.1-1.4-6-3"/><path d="m92.5 18.9c.2 2.1-3.3 3.9-7.8 3.9s-8-1.8-7.8-3.9"/><path d="m94.3 18.9c.2 2.6-4.1 4.9-9.6 4.9-5.6 0-9.9-2.2-9.6-4.9"/><path d="m96.1 18.9c.3 3.1-4.8 5.8-11.4 5.8s-11.8-2.7-11.4-5.8"/><path d="m97.9 18.9c.4 3.6-5.5 6.8-13.2 6.8-7.8 0-13.7-3.1-13.2-6.8"/><path d="m99.7 18.9c.6 4.2-6.1 7.8-15 7.8s-15.6-3.6-15-7.8"/><path d="m101.5 18.9c.7 4.7-6.8 8.8-16.8 8.8s-17.5-4.1-16.8-8.8"/><path d="m103.3 18.9c.9 5.2-7.4 9.8-18.6 9.8s-19.5-4.6-18.6-9.8"/><path d="m105.1 18.9c1.1 5.7-8 10.9-20.4 10.9s-21.5-5.1-20.4-10.9"/><path d="m106.8 18.9c1.3 6.3-8.6 11.9-22.2 11.9s-23.5-5.7-22.2-11.9"/><path d="m108.6 18.9c1.5 6.8-9.2 13-24 13s-25.5-6.2-24-13"/><path d="m110.4 18.9c1.8 7.4-9.7 14.1-25.8 14.1s-27.6-6.7-25.8-14.1"/><path d="m112.2 18.9c2 7.9-10.2 15.2-27.6 15.2s-29.6-7.3-27.6-15.2"/><path d="m114 18.9c2.3 8.5-10.7 16.4-29.4 16.4s-31.7-7.9-29.4-16.4"/><path d="m115.8 18.9c2.6 9-11.2 17.5-31.2 17.5-20.1 0-33.8-8.5-31.2-17.5"/><path d="m117.6 18.9c2.9 9.6-11.6 18.7-33 18.7s-35.9-9.1-33-18.7"/><path d="m119.4 18.9c3.3 10.2-12 19.9-34.8 19.9s-38.1-9.8-34.8-19.9"/><path d="m121.2 18.9c3.7 10.7-12.4 21.2-36.6 21.2s-40.2-10.4-36.6-21.2"/><path d="m123 18.9c4 11.3-12.8 22.4-38.4 22.4s-42.4-11.1-38.4-22.4"/><path d="m124.8 18.9c4.5 11.9-13.1 23.7-40.2 23.7s-44.7-11.8-40.2-23.7"/><path d="m126.6 18.9c4.9 12.5-13.4 25-42 25s-46.9-12.5-42-25"/><path d="m128.4 18.9c5.3 13.1-13.7 26.4-43.8 26.4s-49.1-13.3-43.8-26.4"/><path d="m130.2 18.9c5.8 13.7-13.9 27.7-45.6 27.7s-51.4-14-45.6-27.7"/><path d="m132 18.9c6.4 14.4-14.1 29.1-47.4 29.1s-53.7-14.7-47.4-29.1"/><path d="m133.8 18.9c6.9 15-14.3 30.5-49.2 30.5s-56-15.6-49.2-30.5"/><path d="m135.6 18.9c7.4 15.6-14.5 32-51 32-36.6 0-58.4-16.4-50.9-32"/><path d="m137.4 18.9c8 16.2-14.6 33.5-52.8 33.5s-60.8-17.3-52.7-33.5"/><path d="m139.2 18.9c8.6 16.9-14.6 35-54.6 35s-63.2-18.1-54.5-35"/><path d="m141 18.9c9.2 17.5-14.7 36.5-56.4 36.5s-65.6-19-56.3-36.5"/><path d="m142.8 18.9c9.9 18.2-14.6 38.1-58.2 38.1s-68-20-58.1-38.1"/><path d="m144.6 18.9c10.5 18.8-14.6 39.7-60 39.7s-70.5-20.9-59.9-39.7"/><path d="m146.4 18.9c11.2 19.5-14.5 41.4-61.8 41.4s-73-21.9-61.7-41.4"/><path d="m148.2 18.9c12 20.2-14.4 43.1-63.6 43.1s-75.5-22.9-63.5-43.1"/><path d="m150 18.9c12.7 20.8-14.2 44.8-65.4 44.8s-78.1-24-65.3-44.8"/><path d="m151.8 18.9c13.5 21.5-14 46.6-67.2 46.6s-80.6-25-67.1-46.6"/></g></g><path d="m5.4 120.3h158.9v30.4h-158.9z" fill="url(#e)"/></svg>