<svg enable-background="new 0 0 148.9 119" viewBox="0 0 148.9 119" xmlns="http://www.w3.org/2000/svg"><g fill="none"><path d="m148.9 101.5h-137.4v4.2c0 1 .8 1.8 1.8 1.8h135.6" stroke="#00b6f0"/><path d="m148.9 12h-108.8s-7 0-7 7v82.5"/><path d="m148.9 12h-108.8s-7 0-7 7v82.5" stroke="#00b6f0"/><path d="m148.9 22.5h-105.5v71h105.5" stroke="#00b6f0"/><path d="m60.7 39.1h10.9v10.9h-10.9z" stroke="#00b6f0"/><path d="m83.5 39.1h10.9v10.9h-10.9z" stroke="#00b6f0"/><path d="m106.3 39.1h10.9v10.9h-10.9z" stroke="#00b6f0"/><path d="m71.6 44.5h11.9" stroke="#00b6f0"/><path d="m94.4 44.5h11.9" stroke="#00b6f0"/><path d="m117.2 44.5h31.7" stroke="#00b6f0"/><path d="m60.7 60.3h10.9v10.9h-10.9z" stroke="#00b6f0"/><path d="m106.3 60.3h10.9v10.9h-10.9z" stroke="#00b6f0"/><path d="m71.6 65.7h34.7" stroke="#00b6f0"/><path d="m117.2 65.7h31.7" stroke="#00b6f0"/><circle cx="134.5" cy="65.7" r="4.8" stroke="#00b6f0"/><path d="m134.5 70.5v-26" stroke="#00b6f0"/></g><circle cx="134.5" cy="44.5" fill="#00b5f0" r="2.3"/><path d="m92.9 80.4h-5.2v-10.9h10.9v8.5" fill="none" stroke="#00b6f0"/><path d="m99.8 78.7-6.9-4v8l2.4-1.4 2.1 3.7 2.2-1.2-2.2-3.8z" fill="none" stroke="#00b6f0"/><path d="m97.8 80.4h.8v-1" fill="none" stroke="#00b6f0"/><path d="m43.4 28h105.5" fill="none" stroke="#00b6f0"/><circle cx="111.7" cy="17.7" fill="#00b5f0" r="1.1"/><path d="m121.8 101.7c0 1.5-1.2 2.8-2.8 2.8h-19.1c-1.5 0-2.8-1.2-2.8-2.8" fill="none" stroke="#00b6f0"/></svg>